<?xml version="1.0" standalone="no"?>
<!DOCTYPE svg PUBLIC "-//W3C//DTD SVG 20010904//EN"
 "http://www.w3.org/TR/2001/REC-SVG-20010904/DTD/svg10.dtd">
<svg version="1.0" xmlns="http://www.w3.org/2000/svg"
 width="118.000000pt" height="18.000000pt" viewBox="0 0 118.000000 18.000000"
 preserveAspectRatio="xMidYMid meet">

<g transform="translate(0.000000,18.000000) scale(0.100000,-0.100000)"
fill="#000000" stroke="none">
<path d="M15 95 l0 -85 28 0 c24 0 27 3 27 35 0 31 3 35 26 35 25 0 26 -2 21
-35 -5 -33 -4 -35 24 -35 l29 0 0 85 0 85 -29 0 c-28 0 -29 -2 -24 -35 5 -33
4 -35 -21 -35 -23 0 -26 4 -26 35 0 32 -3 35 -27 35 l-28 0 0 -85z"/>
<path d="M200 114 c0 -95 7 -103 85 -103 l65 1 0 84 0 84 -27 0 c-28 0 -28 -1
-28 -67 0 -61 -2 -68 -20 -68 -18 0 -20 7 -20 68 0 66 0 67 -27 67 -28 0 -28
-1 -28 -66z"/>
<path d="M380 94 l0 -85 52 3 c39 2 54 7 56 19 2 12 -4 15 -28 11 -25 -4 -30
-1 -30 17 0 14 6 21 20 21 11 0 20 7 20 15 0 8 -9 15 -20 15 -14 0 -20 7 -20
21 0 16 5 20 20 16 15 -4 20 0 20 14 0 16 -7 19 -45 19 l-45 0 0 -86z"/>
<path d="M507 173 c-16 -15 -7 -35 14 -30 20 5 20 2 17 -64 l-3 -69 28 0 c27
0 27 0 27 69 0 59 2 69 17 67 10 0 19 7 21 17 3 15 -5 17 -56 17 -32 0 -62 -3
-65 -7z"/>
<path d="M620 70 c-10 -18 -8 -20 19 -20 24 0 41 14 41 36 0 14 -51 1 -60 -16z"/>
</g>
</svg>
